<svg xmlns="http://www.w3.org/2000/svg" viewBox="0 0 745.71 301.2"><defs><style>.cls-1{fill:#fff;}.cls-1,.cls-6{stroke:#1f140f;stroke-miterlimit:10;}.cls-2{font-size:12px;font-family:MyriadPro-Regular, Myriad Pro;}.cls-2,.cls-7{fill:#1f140f;}.cls-3{letter-spacing:0.01em;}.cls-4{letter-spacing:-0.01em;}.cls-5{letter-spacing:-0.01em;}.cls-6{fill:none;}.cls-8{letter-spacing:-0.01em;}.cls-9{letter-spacing:0em;}.cls-10{letter-spacing:0em;}</style></defs><g id="Camada_2" data-name="Camada 2"><g id="Camada_1-2" data-name="Camada 1"><rect class="cls-1" x="8.62" y="0.5" width="76" height="26"/><rect class="cls-1" x="8.62" y="45" width="76" height="26"/><text class="cls-2" transform="translate(0 286.72)"><tspan class="cls-3">I</tspan><tspan x="2.99" y="0">nput L</tspan><tspan class="cls-4" x="35.27" y="0">a</tspan><tspan class="cls-5" x="40.96" y="0">y</tspan><tspan x="46.49" y="0">er Є R60</tspan></text><rect class="cls-1" x="8.62" y="84.54" width="76" height="26"/><rect class="cls-1" x="8.62" y="129.04" width="76" height="26"/><rect class="cls-1" x="8.62" y="168.57" width="76" height="26"/><rect class="cls-1" x="8.62" y="213.07" width="76" height="26"/><rect class="cls-1" x="165.61" y="23.55" width="47.79" height="47.79"/><line class="cls-6" x1="213.4" y1="36.55" x2="228.12" y2="36.55"/><line class="cls-6" x1="228.12" y1="13.96" x2="228.12" y2="36.55"/><line class="cls-6" x1="150.89" y1="13.5" x2="228.6" y2="13.5"/><line class="cls-6" x1="151.43" y1="36.55" x2="151.43" y2="13.95"/><line class="cls-6" x1="150.96" y1="36.55" x2="159.58" y2="36.55"/><path class="cls-7" d="M165.61,36.55a30.31,30.31,0,0,0-8.55,4.75l1.72-4.75-1.72-4.76A30.34,30.34,0,0,0,165.61,36.55Z"/><rect class="cls-1" x="166.15" y="107.58" width="47.79" height="47.79"/><line class="cls-6" x1="213.94" y1="120.58" x2="228.66" y2="120.58"/><line class="cls-6" x1="228.66" y1="98" x2="228.66" y2="120.58"/><line class="cls-6" x1="151.43" y1="97.54" x2="229.14" y2="97.54"/><line class="cls-6" x1="151.97" y1="120.58" x2="151.97" y2="97.98"/><line class="cls-6" x1="151.5" y1="120.58" x2="160.11" y2="120.58"/><path class="cls-7" d="M166.15,120.58a30.34,30.34,0,0,0-8.55,4.76l1.72-4.76-1.72-4.75A30.31,30.31,0,0,0,166.15,120.58Z"/><rect class="cls-1" x="165.37" y="183.66" width="47.79" height="47.79"/><line class="cls-6" x1="213.16" y1="196.66" x2="227.87" y2="196.66"/><line class="cls-6" x1="227.87" y1="174.07" x2="227.87" y2="196.66"/><line class="cls-6" x1="150.65" y1="173.61" x2="228.36" y2="173.61"/><rect class="cls-1" x="306.75" y="24.01" width="47.79" height="47.79"/><line class="cls-6" x1="354.54" y1="37.01" x2="369.25" y2="37.01"/><line class="cls-6" x1="369.25" y1="14.42" x2="369.25" y2="37.01"/><line class="cls-6" x1="292.03" y1="13.96" x2="369.74" y2="13.96"/><line class="cls-6" x1="292.57" y1="37.01" x2="292.57" y2="14.41"/><line class="cls-6" x1="292.09" y1="37.01" x2="300.71" y2="37.01"/><path class="cls-7" d="M306.75,37a30.18,30.18,0,0,0-8.55,4.75L299.92,37l-1.72-4.76A30.2,30.2,0,0,0,306.75,37Z"/><rect class="cls-1" x="307.29" y="108.04" width="47.79" height="47.79"/><line class="cls-6" x1="355.08" y1="121.04" x2="369.79" y2="121.04"/><line class="cls-6" x1="369.79" y1="98.46" x2="369.79" y2="121.04"/><line class="cls-6" x1="292.57" y1="98" x2="370.28" y2="98"/><line class="cls-6" x1="293.11" y1="121.04" x2="293.11" y2="98.44"/><line class="cls-6" x1="292.63" y1="121.04" x2="301.25" y2="121.04"/><path class="cls-7" d="M307.29,121a30.2,30.2,0,0,0-8.55,4.76l1.72-4.76-1.72-4.75A30.18,30.18,0,0,0,307.29,121Z"/><rect class="cls-1" x="306.5" y="184.12" width="47.79" height="47.79"/><line class="cls-6" x1="354.29" y1="197.12" x2="369.01" y2="197.12"/><line class="cls-6" x1="369.01" y1="174.53" x2="369.01" y2="197.12"/><line class="cls-6" x1="291.79" y1="174.07" x2="369.5" y2="174.07"/><line class="cls-6" x1="292.33" y1="197.12" x2="292.33" y2="174.51"/><line class="cls-6" x1="291.85" y1="197.12" x2="300.47" y2="197.12"/><path class="cls-7" d="M306.5,197.12a30.31,30.31,0,0,0-8.55,4.75l1.72-4.75L298,192.36A30.34,30.34,0,0,0,306.5,197.12Z"/><rect class="cls-1" x="424.04" y="24.52" width="47.79" height="47.79"/><line class="cls-6" x1="471.83" y1="37.52" x2="486.55" y2="37.52"/><line class="cls-6" x1="486.55" y1="14.94" x2="486.55" y2="37.52"/><line class="cls-6" x1="409.32" y1="14.47" x2="487.03" y2="14.47"/><line class="cls-6" x1="409.86" y1="37.52" x2="409.86" y2="14.92"/><line class="cls-6" x1="409.39" y1="37.52" x2="418.01" y2="37.52"/><path class="cls-7" d="M424,37.52a30.34,30.34,0,0,0-8.55,4.76l1.72-4.76-1.72-4.75A30.31,30.31,0,0,0,424,37.52Z"/><rect class="cls-1" x="424.58" y="108.56" width="47.79" height="47.79"/><line class="cls-6" x1="472.37" y1="121.56" x2="487.09" y2="121.56"/><line class="cls-6" x1="487.09" y1="98.97" x2="487.09" y2="121.56"/><line class="cls-6" x1="409.86" y1="98.51" x2="487.57" y2="98.51"/><line class="cls-6" x1="409.93" y1="121.56" x2="418.55" y2="121.56"/><path class="cls-7" d="M424.58,121.56a30.31,30.31,0,0,0-8.55,4.75l1.72-4.75L416,116.8A30.34,30.34,0,0,0,424.58,121.56Z"/><rect class="cls-1" x="423.8" y="184.63" width="47.79" height="47.79"/><line class="cls-6" x1="471.59" y1="197.63" x2="486.3" y2="197.63"/><line class="cls-6" x1="486.3" y1="175.04" x2="486.3" y2="197.63"/><line class="cls-6" x1="409.08" y1="174.58" x2="486.79" y2="174.58"/><line class="cls-6" x1="409.62" y1="197.63" x2="409.62" y2="175.03"/><line class="cls-6" x1="409.14" y1="197.63" x2="417.76" y2="197.63"/><path class="cls-7" d="M423.8,197.63a30,30,0,0,0-8.55,4.76l1.72-4.76-1.72-4.76A30,30,0,0,0,423.8,197.63Z"/><rect class="cls-1" x="543" y="23.42" width="47.79" height="47.79"/><line class="cls-6" x1="590.79" y1="36.42" x2="605.5" y2="36.42"/><line class="cls-6" x1="605.5" y1="13.84" x2="605.5" y2="36.42"/><line class="cls-6" x1="528.28" y1="13.38" x2="605.99" y2="13.38"/><line class="cls-6" x1="528.82" y1="36.42" x2="528.82" y2="13.82"/><line class="cls-6" x1="528.35" y1="36.42" x2="536.96" y2="36.42"/><path class="cls-7" d="M543,36.42a30.34,30.34,0,0,0-8.55,4.76l1.72-4.76-1.72-4.75A30.31,30.31,0,0,0,543,36.42Z"/><rect class="cls-1" x="543.54" y="107.46" width="47.79" height="47.79"/><line class="cls-6" x1="591.33" y1="120.46" x2="606.04" y2="120.46"/><line class="cls-6" x1="606.04" y1="97.87" x2="606.04" y2="120.46"/><line class="cls-6" x1="528.82" y1="97.41" x2="606.53" y2="97.41"/><line class="cls-6" x1="529.36" y1="120.46" x2="529.36" y2="97.86"/><line class="cls-6" x1="528.89" y1="120.46" x2="537.5" y2="120.46"/><path class="cls-7" d="M543.54,120.46a30.31,30.31,0,0,0-8.55,4.75l1.72-4.75L535,115.7A30.1,30.1,0,0,0,543.54,120.46Z"/><rect class="cls-1" x="542.75" y="183.53" width="47.79" height="47.79"/><line class="cls-6" x1="590.54" y1="196.53" x2="605.26" y2="196.53"/><line class="cls-6" x1="605.26" y1="173.94" x2="605.26" y2="196.53"/><line class="cls-6" x1="528.04" y1="173.48" x2="605.75" y2="173.48"/><line class="cls-6" x1="528.58" y1="196.53" x2="528.58" y2="173.93"/><line class="cls-6" x1="528.1" y1="196.53" x2="536.72" y2="196.53"/><path class="cls-7" d="M542.75,196.53a30,30,0,0,0-8.54,4.76l1.72-4.76-1.72-4.75A30.26,30.26,0,0,0,542.75,196.53Z"/><rect class="cls-1" x="682.73" y="45" width="32.72" height="168.07"/><line class="cls-6" x1="84.62" y1="14.92" x2="165.37" y2="48.42"/><line class="cls-6" x1="84.62" y1="58" x2="165.37" y2="48.42"/><line class="cls-6" x1="84.62" y1="97.86" x2="165.37" y2="48.42"/><line class="cls-6" x1="84.62" y1="142.04" x2="165.37" y2="48.42"/><line class="cls-6" x1="84.62" y1="180.21" x2="165.37" y2="48.42"/><line class="cls-6" x1="84.62" y1="226.07" x2="165.37" y2="48.42"/><line class="cls-6" x1="84.62" y1="14.92" x2="84.62" y2="14.92"/><line class="cls-6" x1="84.62" y1="14.92" x2="166.15" y2="132.45"/><line class="cls-6" x1="84.62" y1="58" x2="166.15" y2="132.45"/><line class="cls-6" x1="84.62" y1="97.86" x2="166.15" y2="132.45"/><line class="cls-6" x1="84.62" y1="142.04" x2="166.15" y2="132.45"/><line class="cls-6" x1="84.62" y1="180.21" x2="166.15" y2="132.45"/><line class="cls-6" x1="84.62" y1="226.07" x2="166.15" y2="132.45"/><line class="cls-6" x1="84.62" y1="14.92" x2="165.37" y2="208.52"/><line class="cls-6" x1="84.62" y1="58" x2="165.37" y2="208.52"/><line class="cls-6" x1="84.62" y1="97.86" x2="165.37" y2="208.52"/><line class="cls-6" x1="84.62" y1="142.04" x2="165.37" y2="208.52"/><line class="cls-6" x1="84.62" y1="180.21" x2="165.37" y2="208.52"/><line class="cls-6" x1="151.19" y1="196.66" x2="151.19" y2="174.05"/><line class="cls-6" x1="150.71" y1="196.66" x2="159.33" y2="196.66"/><path class="cls-7" d="M165.37,196.66a30.18,30.18,0,0,0-8.55,4.75l1.72-4.75-1.72-4.76A30.45,30.45,0,0,0,165.37,196.66Z"/><line class="cls-6" x1="213.94" y1="48.42" x2="307.29" y2="48.42"/><line class="cls-6" x1="355.08" y1="48.42" x2="423.8" y2="48.42"/><line class="cls-6" x1="472.37" y1="48.42" x2="542.75" y2="48.42"/><line class="cls-6" x1="213.94" y1="213.07" x2="306.75" y2="213.07"/><line class="cls-6" x1="355.08" y1="213.07" x2="423.8" y2="213.07"/><line class="cls-6" x1="472.37" y1="213.07" x2="542.75" y2="213.07"/><line class="cls-6" x1="213.16" y1="133.26" x2="306.5" y2="133.26"/><line class="cls-6" x1="355.08" y1="133.26" x2="423.8" y2="133.26"/><line class="cls-6" x1="472.37" y1="132.45" x2="542.75" y2="132.45"/><line class="cls-6" x1="213.94" y1="48.42" x2="306.5" y2="133.26"/><line class="cls-6" x1="213.94" y1="48.42" x2="306.75" y2="213.07"/><line class="cls-6" x1="213.16" y1="133.26" x2="307.29" y2="48.42"/><line class="cls-6" x1="213.16" y1="133.26" x2="306.75" y2="213.07"/><line class="cls-6" x1="213.94" y1="213.07" x2="306.5" y2="133.26"/><line class="cls-6" x1="213.94" y1="213.07" x2="307.29" y2="48.42"/><line class="cls-6" x1="355.08" y1="48.42" x2="423.8" y2="133.26"/><line class="cls-6" x1="355.08" y1="48.42" x2="423.8" y2="213.07"/><line class="cls-6" x1="355.08" y1="133.26" x2="423.8" y2="48.42"/><line class="cls-6" x1="355.08" y1="133.26" x2="423.8" y2="213.07"/><line class="cls-6" x1="355.08" y1="213.07" x2="423.8" y2="48.42"/><line class="cls-6" x1="355.08" y1="213.07" x2="423.8" y2="133.26"/><line class="cls-6" x1="472.37" y1="48.42" x2="542.75" y2="132.45"/><line class="cls-6" x1="472.37" y1="48.42" x2="542.75" y2="213.07"/><line class="cls-6" x1="472.37" y1="132.45" x2="542.75" y2="48.42"/><line class="cls-6" x1="472.37" y1="132.45" x2="542.75" y2="213.07"/><line class="cls-6" x1="472.37" y1="213.07" x2="542.75" y2="48.42"/><line class="cls-6" x1="472.37" y1="213.07" x2="542.75" y2="132.45"/><line class="cls-6" x1="590.54" y1="48.42" x2="682.73" y2="131.48"/><line class="cls-6" x1="590.79" y1="132.45" x2="682.73" y2="131.48"/><line class="cls-6" x1="591.33" y1="213.07" x2="682.73" y2="131.48"/><line class="cls-6" x1="410.4" y1="121.56" x2="410.4" y2="98.96"/><text class="cls-2" transform="translate(141.61 286.72)">LSTM L<tspan class="cls-8" x="35.4" y="0">a</tspan><tspan class="cls-5" x="41.09" y="0">y</tspan><tspan x="46.62" y="0">er Є R150</tspan></text><text class="cls-2" transform="translate(283.22 286.72)">LSTM L<tspan class="cls-8" x="35.4" y="0">a</tspan><tspan class="cls-5" x="41.09" y="0">y</tspan><tspan x="46.62" y="0">er Є R150</tspan></text><text class="cls-2" transform="translate(402.1 286.32)">LSTM L<tspan class="cls-8" x="35.4" y="0">a</tspan><tspan class="cls-5" x="41.09" y="0">y</tspan><tspan x="46.62" y="0">er Є R150</tspan></text><text class="cls-2" transform="translate(520.03 286.32)">LSTM L<tspan class="cls-8" x="35.4" y="0">a</tspan><tspan class="cls-5" x="41.09" y="0">y</tspan><tspan x="46.62" y="0">er Є R150</tspan></text><text class="cls-2" transform="translate(652.46 286.32)"><tspan class="cls-9">O</tspan><tspan class="cls-10" x="8.3" y="0">utput L</tspan><tspan class="cls-4" x="44.51" y="0">a</tspan><tspan class="cls-5" x="50.19" y="0">y</tspan><tspan x="55.73" y="0">er Є R1</tspan></text></g></g></svg>